<svg width="20" height="20" viewBox="0 0 20 20" fill="none" xmlns="http://www.w3.org/2000/svg">
<path fill-rule="evenodd" clip-rule="evenodd" d="M15.2071 2.32843C15.4174 2.11814 15.7026 2 16 2C16.1473 2 16.2931 2.029 16.4291 2.08536C16.5652 2.14171 16.6888 2.2243 16.7929 2.32843C16.8971 2.43255 16.9797 2.55616 17.036 2.69221C17.0924 2.82825 17.1214 2.97407 17.1214 3.12132C17.1214 3.26857 17.0924 3.41439 17.036 3.55043C16.9797 3.68648 16.8971 3.81009 16.7929 3.91421L4.48879 16.2184L2.37441 16.747L2.903 14.6326L15.2071 2.32843ZM16 0C15.1722 0 14.3783 0.328852 13.7929 0.914213L1.29293 13.4142C1.16477 13.5424 1.07385 13.703 1.0299 13.8788L0.0298953 17.8788C-0.0552984 18.2196 0.0445507 18.58 0.292931 18.8284C0.541311 19.0768 0.901798 19.1767 1.24257 19.0915L5.24257 18.0915C5.41841 18.0475 5.57899 17.9566 5.70714 17.8284L18.2071 5.32843C18.497 5.03859 18.7269 4.69449 18.8838 4.3158C19.0406 3.9371 19.1214 3.53122 19.1214 3.12132C19.1214 2.71142 19.0406 2.30554 18.8838 1.92684C18.7269 1.54815 18.497 1.20405 18.2071 0.914213C17.9173 0.624372 17.5732 0.394457 17.1945 0.237596C16.8158 0.0807353 16.4099 0 16 0ZM10 17.1213C9.44775 17.1213 9.00004 17.569 9.00004 18.1213C9.00004 18.6736 9.44775 19.1213 10 19.1213H19C19.5523 19.1213 20 18.6736 20 18.1213C20 17.569 19.5523 17.1213 19 17.1213H10Z" fill="black"/>
</svg>
